HIERARCHY
ROOT hip
{
  OFFSET 0 0 0
  CHANNELS 6 Xposition Yposition Zposition Zrotation Yrotation Xrotation
  JOINT abdomen
  {
    OFFSET 0 20.6881 -0.73152
    CHANNELS 3 Zrotation Xrotation Yrotation
    JOINT chest
    {
      OFFSET 0 11.7043 -0.48768
      CHANNELS 3 Zrotation Xrotation Yrotation
      JOINT neck
      {
        OFFSET 0 22.1894 -2.19456
        CHANNELS 3 Zrotation Xrotation Yrotation
        JOINT head
        {
          OFFSET -0.24384 7.07133 1.2192
          CHANNELS 3 Zrotation Xrotation Yrotation
          JOINT leftEye
          {
            OFFSET 4.14528 8.04674 8.04672
            CHANNELS 3 Zrotation Xrotation Yrotation
            End Site
            {
              OFFSET 1 0 0
            }
          }
          JOINT rightEye
          {
            OFFSET -3.6576 8.04674 8.04672
            CHANNELS 3 Zrotation Xrotation Yrotation
            End Site
            {
              OFFSET 1 0 0
            }
          }
        }
      }
      JOINT rCollar
      {
        OFFSET -2.68224 19.2634 -4.8768
        CHANNELS 3 Zrotation Xrotation Yrotation
        JOINT rShldr
        {
          OFFSET -8.77824 -1.95073 1.46304
          CHANNELS 3 Zrotation Xrotation Yrotation
          JOINT rForeArm
          {
            OFFSET -28.1742 -1.7115 0.48768
            CHANNELS 3 Zrotation Xrotation Yrotation
            JOINT rHand
            {
              OFFSET -22.5879 0.773209 7.07136
              CHANNELS 3 Zrotation Xrotation Yrotation
              JOINT rThumb1
              {
                OFFSET -1.2192 -0.487915 3.41376
                CHANNELS 3 Zrotation Xrotation Yrotation
                JOINT rThumb2
                {
                  OFFSET -3.37035 -0.52449 3.41376
                  CHANNELS 3 Zrotation Xrotation Yrotation
                  End Site
                  {
                    OFFSET -1.78271 -1.18214 1.43049
                  }
                }
              }
              JOINT rIndex1
              {
                OFFSET -7.75947 0.938293 5.60832
                CHANNELS 3 Zrotation Xrotation Yrotation
                JOINT rIndex2
                {
                  OFFSET -2.54057 -0.884171 1.56538
                  CHANNELS 3 Zrotation Xrotation Yrotation
                  End Site
                  {
                    OFFSET -1.62519 -0.234802 1.16502
                  }
                }
              }
              JOINT rMid1
              {
                OFFSET -8.24714 1.18213 3.41376
                CHANNELS 3 Zrotation Xrotation Yrotation
                JOINT rMid2
                {
                  OFFSET -3.10165 -0.590103 1.0647
                  CHANNELS 3 Zrotation Xrotation Yrotation
                  End Site
                  {
                    OFFSET -2.48547 -0.328903 0.83742
                  }
                }
              }
              JOINT rRing1
              {
                OFFSET -8.82822 0.546677 1.51678
                CHANNELS 3 Zrotation Xrotation Yrotation
                JOINT rRing2
                {
                  OFFSET -2.60934 -0.819778 -0.0198488
                  CHANNELS 3 Zrotation Xrotation Yrotation
                  End Site
                  {
                    OFFSET -2.33842 -0.294052 0.168128
                  }
                }
              }
              JOINT rPinky1
              {
                OFFSET -8.27202 -0.0477905 -0.4584
                CHANNELS 3 Zrotation Xrotation Yrotation
                JOINT rPinky2
                {
                  OFFSET -1.82734 -0.647385 -0.700984
                  CHANNELS 3 Zrotation Xrotation Yrotation
                  End Site
                  {
                    OFFSET -1.69225 -0.51767 -0.607171
                  }
                }
              }
            }
          }
        }
      }
      JOINT lCollar
      {
        OFFSET 2.68224 19.2634 -4.8768
        CHANNELS 3 Zrotation Xrotation Yrotation
        JOINT lShldr
        {
          OFFSET 8.77824 -1.95073 1.46304
          CHANNELS 3 Zrotation Xrotation Yrotation
          JOINT lForeArm
          {
            OFFSET 28.1742 -1.7115 0.48768
            CHANNELS 3 Zrotation Xrotation Yrotation
            JOINT lHand
            {
              OFFSET 22.5879 0.773209 7.07136
              CHANNELS 3 Zrotation Xrotation Yrotation
              JOINT lThumb1
              {
                OFFSET 1.2192 -0.487915 3.41376
                CHANNELS 3 Zrotation Xrotation Yrotation
                JOINT lThumb2
                {
                  OFFSET 3.37035 -0.52449 3.41376
                  CHANNELS 3 Zrotation Xrotation Yrotation
                  End Site
                  {
                    OFFSET 1.78271 -1.18214 1.43049
                  }
                }
              }
              JOINT lIndex1
              {
                OFFSET 7.75947 0.938293 5.60832
                CHANNELS 3 Zrotation Xrotation Yrotation
                JOINT lIndex2
                {
                  OFFSET 2.54057 -0.884171 1.56538
                  CHANNELS 3 Zrotation Xrotation Yrotation
                  End Site
                  {
                    OFFSET 1.62519 -0.234802 1.16502
                  }
                }
              }
              JOINT lMid1
              {
                OFFSET 8.24714 1.18213 3.41376
                CHANNELS 3 Zrotation Xrotation Yrotation
                JOINT lMid2
                {
                  OFFSET 3.10165 -0.590103 1.0647
                  CHANNELS 3 Zrotation Xrotation Yrotation
                  End Site
                  {
                    OFFSET 2.48547 -0.328903 0.83742
                  }
                }
              }
              JOINT lRing1
              {
                OFFSET 8.82822 0.546677 1.51678
                CHANNELS 3 Zrotation Xrotation Yrotation
                JOINT lRing2
                {
                  OFFSET 2.60934 -0.819778 -0.0198488
                  CHANNELS 3 Zrotation Xrotation Yrotation
                  End Site
                  {
                    OFFSET 2.33842 -0.294052 0.168128
                  }
                }
              }
              JOINT lPinky1
              {
                OFFSET 8.27202 -0.0477905 -0.4584
                CHANNELS 3 Zrotation Xrotation Yrotation
                JOINT lPinky2
                {
                  OFFSET 1.82734 -0.647385 -0.700984
                  CHANNELS 3 Zrotation Xrotation Yrotation
                  End Site
                  {
                    OFFSET 1.69225 -0.51767 -0.607171
                  }
                }
              }
            }
          }
        }
      }
    }
  }
  JOINT rButtock
  {
    OFFSET -8.77824 4.35084 1.2192
    CHANNELS 3 Zrotation Xrotation Yrotation
    JOINT rThigh
    {
      OFFSET 0 -1.70687 -2.19456
      CHANNELS 3 Zrotation Xrotation Yrotation
      JOINT rShin
      {
        OFFSET 0 -36.8199 0.73152
        CHANNELS 3 Zrotation Xrotation Yrotation
        JOINT rFoot
        {
          OFFSET 0.73152 -45.1104 -5.12064
          CHANNELS 3 Zrotation Xrotation Yrotation
          End Site
          {
            OFFSET -1.1221 -3.69964 12.103
          }
        }
      }
    }
  }
  JOINT lButtock
  {
    OFFSET 8.77824 4.35084 1.2192
    CHANNELS 3 Zrotation Xrotation Yrotation
    JOINT lThigh
    {
      OFFSET 0 -1.70687 -2.19456
      CHANNELS 3 Zrotation Xrotation Yrotation
      JOINT lShin
      {
        OFFSET 0 -36.8199 0.73152
        CHANNELS 3 Zrotation Xrotation Yrotation
        JOINT lFoot
        {
          OFFSET -0.73152 -45.1104 -5.12064
          CHANNELS 3 Zrotation Xrotation Yrotation
          End Site
          {
            OFFSET 1.1221 -3.69964 12.103
          }
        }
      }
    }
  }
}
MOTION
Frames:	8
Frame Time:	0.00833333
0.000000 0.000000 0.000000 -1.673674 -4.279917 -4.659632 0.215825 1.701411 1.483254 2.294625 3.119953 0.137532 -0.339563 -3.404338 -1.123365 -4.215596 2.650690 -0.981203 -0.253724 -1.268630 4.688278 -4.467351 -0.763132 -2.237192 3.074732 -4.452058 0.300632 -1.468657 1.191444 1.086996 -0.511258 -4.454850 -2.074327 -3.709153 2.573712 -0.042559 -3.952787 0.066023 -3.437055 -1.579846 -0.136484 -2.536317 -3.928833 2.385145 4.764116 -2.319576 -4.674080 4.592632 0.723215 0.834514 -2.177686 -0.201147 -1.752952 -0.843805 4.186819 4.154296 1.177190 1.185324 -0.211619 -1.064346 -2.276766 -1.389033 -2.922500 -3.230948 -1.489888 -1.037142 -1.044279 3.630927 0.005826 2.122191 -2.172819 1.933691 -2.509213 -1.166636 1.131566 4.517456 -4.044471 -4.795900 1.533818 -2.490519 4.149657 -0.747011 -2.934755 -4.679366 -3.932374 -3.443733 -2.460029 0.579246 4.660316 -4.769230 3.483791 0.281113 -0.210011 4.476500 0.912209 -1.205781 1.472307 0.120824 4.177835 -4.551401 0.094672 4.526066 4.613790 3.819279 2.941419 2.073337 1.397257 3.908067 -1.094053 -3.396016 -0.694016 2.139791 -4.429553 0.869304 -3.126042 -3.565956 1.836915 -0.640216 -3.062672 3.818181 -3.536538 -0.812499 -1.969103 1.700088 -3.934676 4.602669 -2.749719 3.391146 1.666068 4.070564 -2.409331 4.318594
0.000100 62.185200 0.059200 -1.731778 -84.841842 5.185020 1.697837 0.554307 -1.547386 14.452317 1.821265 -64.217241 -9.173166 -7.480224 -126.609454 25.103021 -25.755995 38.038277 49.883503 0.394501 -3.588802 21.712886 -18.331815 -81.703775 -56.905788 -86.269977 -150.942819 -163.110073 24.893352 169.200074 0.364634 77.945711 175.792185 -180.074559 53.256845 75.304183 2.112192 -18.818944 46.155274 166.713194 11.648452 -89.780972 156.069894 28.192879 -124.800695 -18.052529 38.989671 -79.104076 -51.057688 -4.622367 -111.419547 138.191377 -58.906327 117.239866 93.088560 18.644739 -86.623276 4.007821 -28.932253 -4.726856 30.255818 9.264372 -66.389503 -14.517133 -26.506439 -10.233654 85.987323 -44.020859 -171.238614 167.890121 -35.830331 -174.432369 0.633289 50.640648 -165.525700 -176.052662 23.819392 -115.800530 -12.434004 -29.453105 -16.131349 -165.256750 -60.947008 -100.827339 155.537306 8.753622 -84.406076 87.469626 39.964429 -73.005857 -13.696552 -22.091310 -31.553141 92.402706 81.466022 -60.975490 -99.421884 -14.863118 76.826775 157.484608 -55.621407 -168.361093 50.637963 40.679371 99.731958 155.250031 42.946419 148.066126 16.963570 -47.931776 16.052720 -1.216038 54.079386 -2.394145 -3.981354 -9.682716 0.964176 73.593335 -24.935345 -103.679496 -0.404887 -54.759484 2.731102 -1.622663 55.546943 0.111126 6.964079 -0.919166 67.913192 -7.647566 -69.649731 172.189538
-0.054600 68.573700 -1.800500 4.204309 -33.980168 2.697362 -8.833865 8.960662 -1.398696 0.030580 0.313231 -3.311620 2.044590 13.424619 148.885130 -13.947313 49.428928 178.794154 -35.145628 24.066173 -55.904183 -23.764854 13.618282 -55.391392 -140.058492 -1.265568 166.688936 -37.982354 4.176519 -12.440848 154.575373 16.504174 -121.409703 -17.767954 39.954389 9.087186 -181.262805 -19.037436 42.411099 176.640633 -15.514097 1.438904 10.840055 42.707292 -24.752060 -170.374147 15.679725 43.381048 -137.295169 50.478477 141.657255 -81.319061 -68.812573 -151.403810 33.986909 20.685563 -13.644405 -68.576625 -62.549243 -36.603437 5.464357 -34.473963 -22.977443 -77.264243 58.854008 64.495764 147.078706 17.728596 -155.650483 -120.551846 51.277724 -168.863745 -14.308858 -73.158607 91.093103 -164.395749 -17.791800 -151.731885 158.859573 3.786145 -98.274047 100.615867 13.429866 -49.197641 112.757841 27.529548 -95.161467 123.924760 88.791737 -119.155346 18.592074 21.862776 1.930622 158.323066 -7.683055 -146.906526 -6.731231 71.138238 13.458220 172.652282 -54.244676 -171.738393 3.918534 61.965268 -23.234047 167.300575 42.392925 135.428319 -82.274028 54.549445 -56.045584 119.612199 15.426287 83.642369 42.830508 38.049022 -110.883472 120.176041 -6.547407 -34.261767 -3.489278 -4.069493 -2.630268 38.359108 -22.434313 -137.018062 -23.400040 -53.607259 45.234314 108.986296 -42.140313 -153.972192
-0.692700 70.451700 -2.955800 -0.183664 -25.257014 6.108560 -2.624823 13.986824 -103.620550 7.784053 0.471456 99.921018 3.048656 8.560019 47.875960 -29.199967 -23.933751 -57.533724 -30.786015 21.344698 -62.122334 171.854359 8.144102 -49.854293 -55.556645 63.442613 64.562925 101.345025 -25.630770 73.632958 -31.719104 7.771378 89.516446 7.384066 -38.667668 -1.600495 2.717333 7.013492 9.908075 -72.234285 13.421489 7.166713 -141.536320 39.545954 114.118952 -20.146650 -10.676616 -0.383427 -45.738342 -71.343387 -64.735790 -93.530113 -53.806915 170.289254 -0.006180 -16.588431 -35.673586 -19.211778 -13.943715 34.729580 -136.295799 47.696084 168.135005 71.961632 -18.717430 -0.343645 153.278823 -0.909555 -159.952212 66.285353 25.748022 21.268549 -148.560204 -35.165711 132.175901 19.217732 56.088482 -8.709356 7.432704 5.089796 -3.071255 146.301856 -32.891395 -89.829825 -29.515583 -50.431160 -1.117069 156.805885 14.055370 -77.301445 108.379407 62.847994 -84.514970 165.683027 -0.798106 -113.821219 25.076986 -14.379109 1.023061 -26.536050 19.414694 -22.071541 -14.030113 -70.548951 -20.258168 55.988994 -2.033030 1.834374 12.997475 -6.104176 9.325578 -17.602782 -45.925704 146.248149 52.770512 -50.200920 -148.697248 -138.978501 -33.417184 5.220657 87.767809 54.689230 49.169895 -96.465105 -1.743669 97.572173 66.092417 -48.651387 -41.089233 -94.676477 41.498162 -1.475717
-2.026700 69.560400 -3.322000 -4.400062 -14.876883 1.360568 -1.006454 11.437099 -170.886451 -1.669725 10.634687 159.399178 4.125756 9.307636 0.633758 -1.401453 -35.944476 11.095483 -176.408648 -2.646731 -64.600682 -36.139802 17.996005 -47.842095 -121.932928 59.773018 119.486868 -81.834905 16.926954 95.148446 -179.219701 -1.799454 -88.693751 -2.011483 -22.714951 -3.485969 -129.034749 25.414979 81.587830 -149.694928 -32.104728 125.452113 -10.550879 13.887154 -9.400133 -162.854365 2.854964 91.218647 -4.091773 -7.177211 -0.242712 -164.317055 -27.938511 134.145320 -175.180936 8.130190 151.443216 -57.850718 21.134431 29.216849 -125.036269 46.695339 121.378810 -50.005234 54.954857 148.376065 51.584201 -75.844288 75.543587 83.905480 -3.828036 132.808295 167.857863 74.576600 -71.996389 -177.447059 -21.698721 -152.741898 4.581743 -17.704466 2.152030 -6.883509 38.231236 -8.488053 156.539255 -60.521385 -134.351665 -6.836192 18.659723 -17.190687 162.660450 20.186864 -133.324764 166.257326 19.411610 -94.661190 6.138204 48.234664 -13.968093 125.539683 68.866437 -114.797748 131.155137 -11.850582 114.033425 128.784211 21.131286 132.611873 -43.778637 3.897166 -7.635365 30.754470 -38.707940 32.349744 48.629710 63.533200 -116.275607 -26.061887 -50.116592 53.282149 -165.635961 66.283106 -18.080317 -163.542721 24.462659 145.140794 64.470820 -65.188779 12.501253 -80.181371 -46.218401 -159.674633
-2.789200 71.632600 -4.763300 -1.819123 -16.118965 4.430956 -2.211059 14.283141 1.408738 2.715617 -12.872911 -18.385510 2.629267 14.058171 -5.482811 2.534986 -22.878332 24.656623 16.021276 -11.049964 -51.993917 -5.332605 -0.098314 -2.223668 -38.291181 57.233915 41.225913 68.476305 9.966881 30.040263 40.575844 8.616900 102.008481 -22.578909 6.010001 4.984459 -26.384562 36.796319 5.477225 48.333639 -70.134963 18.623756 -138.765799 12.353024 121.402637 -155.500973 -28.196484 132.924378 -121.475131 55.604379 109.953187 10.452799 -32.660109 -2.223407 -1.170724 -48.215554 11.418557 40.996667 33.928613 -26.309089 174.875660 -5.439151 164.007802 125.126770 -37.432959 142.678450 151.220411 -37.690402 -184.058274 65.197904 -5.542488 66.584574 -31.360095 82.327316 127.622509 -173.851019 -14.886465 -149.523868 5.852674 0.477066 6.975810 -40.894179 -19.589266 12.158145 38.725813 34.191623 -23.827935 -14.343971 8.885853 -7.808892 12.025654 -8.499731 -7.592758 115.299272 53.641822 -141.622546 9.950127 0.211604 2.975193 138.915355 2.222699 -162.313331 1.461549 33.591501 18.748825 10.448781 -82.558122 8.525515 5.945174 9.659730 7.987643 -36.730843 -46.596516 -17.895208 39.741336 81.136579 162.494276 92.491816 -16.475051 169.477726 -10.454867 4.367851 -24.892505 54.597599 -19.225749 -169.363847 56.879465 -46.038634 135.849118 -173.288476 23.574644 -123.625394
-2.492300 71.673100 -6.074700 -1.353225 -5.592672 -1.009557 2.583135 12.126304 176.548227 -1.925035 10.857073 176.754741 -4.290229 9.059151 -2.751487 13.671034 -23.339091 20.729573 6.096183 -2.647497 -10.862600 8.846301 -3.179678 22.436216 40.938057 -71.921231 15.547403 130.535126 17.092993 -135.373674 169.084866 43.257299 52.483914 -132.433340 38.123051 113.209032 -175.132274 -18.089361 103.879171 -4.260046 -53.170541 -7.784301 -154.917251 -28.493001 121.053006 167.680434 -50.308127 95.355658 -172.415800 -34.917161 153.630855 -33.632912 67.704914 22.813224 3.786896 -12.074466 11.156786 24.430746 26.561286 -0.782324 22.001454 -50.395593 61.045133 33.954567 28.819556 -94.266613 161.877525 -26.672240 -164.493219 -100.536396 16.728866 116.565303 119.077844 86.084924 174.859397 -1.381387 18.278717 -0.910526 0.692327 1.552974 9.004020 -148.779183 -83.223271 -59.576850 138.327196 11.974966 -110.576246 -19.714602 -36.101082 2.708467 3.213586 -3.181798 -2.737721 -169.995998 -71.652182 -120.557125 156.033680 40.120909 -165.525282 175.297682 19.808430 -168.405144 149.167563 47.483279 176.948812 -7.601660 -26.689702 -25.392534 1.539463 16.464914 -10.738680 -13.161590 -58.411800 178.349354 -1.569726 -86.498175 51.387366 72.201566 -43.478992 152.475974 120.262397 51.292984 61.184909 -114.981058 21.518105 140.954666 40.145640 -70.354276 -36.931871 -29.955208 8.998852 -88.027189
-1.766200 72.160800 -6.458900 -0.674370 -4.884824 5.866152 4.398585 12.462765 -166.984713 -2.988794 7.052154 161.628802 -3.009520 31.525902 174.072804 -16.289127 38.996197 -142.048081 1.543831 1.025147 -17.489414 7.720030 2.897852 27.257275 -151.004400 14.424132 149.114848 -126.452614 16.367783 80.007480 -41.313335 -19.791595 176.032861 -167.547823 -24.487558 150.802776 170.171553 -20.244584 92.572979 -88.214316 15.339803 34.994805 15.223384 -14.413468 10.320340 -8.707457 13.835104 -13.437139 -150.736320 27.053516 137.331791 -1.745610 -8.021515 1.663084 -138.714460 17.482588 171.649947 -45.923066 -66.292912 -56.525117 37.239043 -68.243018 54.081497 -143.879339 -18.168746 -60.252171 15.850381 32.667874 -12.728441 98.612776 -20.564626 -95.903150 -7.835397 62.721878 102.264909 -158.998772 -17.723382 -147.587385 7.414966 6.018450 11.513906 -8.580798 -19.724331 8.903696 50.651479 39.889783 -35.485964 -36.029782 -23.972519 -3.705762 166.575563 -5.097118 -132.900235 -177.398917 -15.980547 -135.325691 29.371734 30.917019 -15.727442 126.672706 19.715185 -151.573110 13.516088 19.849286 -33.780343 87.955260 -24.942927 118.736738 -23.006992 18.367368 -18.343741 32.176282 -58.402804 -158.078414 48.319520 -78.081967 122.612872 26.645362 3.499862 89.644423 89.925138 37.470441 46.416275 -86.482566 2.893829 -2.551554 73.178187 66.249474 59.837270 -50.489172 -14.836629 -127.592834
